<svg xmlns="http://www.w3.org/2000/svg" width="21" height="21" version="1.1" viewBox="0 0 21 21"><g id="Layer-1" transform="translate(0.5,0.5)"><rect width="20" height="20" x="0" y="0" fill="none"/><g><path fill="#000" fill-rule="nonzero" d="M0,0C0,3.403 -2.042,6.161 -4.56,6.161C-7.078,6.161 -9.12,3.403 -9.12,0C-9.12,-3.403 -7.078,-6.161 -4.56,-6.161C-2.042,-6.161 0,-3.403 0,0" transform="translate(14.8974,6.3648)"/></g><g transform="matrix(0,-1,-1,0,10.3374,1.8048)"><ellipse cx="-4.56" cy="0" fill="none" stroke="#000" stroke-width=".25" rx="6.161" ry="4.56"/></g><g><path fill="none" fill-rule="nonzero" stroke="#000" stroke-width="2" d="M0,-9.484C-0.76,-4.212 3.287,0 7.12,-0.046C10.864,-0.09 14.742,-4.199 14.076,-9.343" transform="translate(3.1987,14.4958)"/></g><g transform="matrix(-1,0,0,1,20.573,18.613)"><rect width="9.799" height=".185" x="5.387" y=".601" fill="none" stroke="#000" stroke-width="2"/></g><g transform="matrix(-1,0,0,1,20.741,13.51)"><rect width=".943" height="4.164" x="9.899" y="1.163" fill="none" stroke="#000" stroke-width="2"/></g></g></svg>